<?xml version="1.0" encoding="utf-8"?>
<!-- Generator: Adobe Illustrator 23.0.0, SVG Export Plug-In . SVG Version: 6.00 Build 0)  -->
<svg version="1.1" id="Capa_1" xmlns="http://www.w3.org/2000/svg" xmlns:xlink="http://www.w3.org/1999/xlink" x="0px" y="0px"
	 viewBox="0 0 401.2 157.76" style="enable-background:new 0 0 401.2 157.76;" xml:space="preserve">
<style type="text/css">
	.st0{fill-rule:evenodd;clip-rule:evenodd;}
</style>
<g>
	<path class="st0" d="M392.2,123.74V30.69h9v93.05H392.2z M369.02,112.62c-2.81,4.04-6.6,7.19-11.4,9.54
		c-4.8,2.27-9.97,3.44-15.51,3.44c-10.3,0-18.88-3.54-25.74-10.58c-6.87-7.05-10.29-15.76-10.29-26.11
		c0-10.51,3.52-19.31,10.51-26.39c7-7.07,15.78-10.6,26.31-10.6c5.4,0,10.36,1.08,14.86,3.29c4.52,2.2,8.28,5.36,11.26,9.48V53.44
		h8.82v70.3h-8.82V112.62z M369.02,88.13c0-7.46-2.67-13.96-7.99-19.52c-5.32-5.56-11.46-8.34-18.4-8.34
		c-7.54,0-13.96,2.78-19.25,8.34c-5.31,5.56-7.98,12.46-7.98,20.68c0,7.83,2.66,14.45,7.93,19.81c5.28,5.4,11.62,8.11,19.03,8.11
		c7.15,0,13.4-2.83,18.7-8.53C366.35,102.98,369.02,96.14,369.02,88.13z M286.34,64.56V48.89v-18.2h9.07v93.05h-9.07v-10.6
		c-3.17,3.9-7.08,6.96-11.76,9.16c-4.69,2.19-9.64,3.29-14.9,3.29c-10.14,0-18.67-3.58-25.62-10.74
		c-6.95-7.16-10.43-15.95-10.43-26.32c0-10.32,3.43-19,10.3-26.04c6.85-7.04,15.45-10.58,25.75-10.58c5.54,0,10.58,1.07,15.11,3.23
		C279.33,57.29,283.17,60.44,286.34,64.56z M286.59,89.29c0-8-2.65-14.85-7.96-20.5c-5.3-5.67-11.54-8.51-18.69-8.51
		c-7.41,0-13.76,2.71-19.03,8.11c-5.28,5.38-7.93,11.97-7.93,19.75c0,8.23,2.67,15.12,7.98,20.69c5.29,5.59,11.7,8.39,19.26,8.39
		c6.93,0,13.05-2.8,18.41-8.39C283.94,103.25,286.59,96.75,286.59,89.29z M154.17,53.44h8.75v8c2.77-3.2,5.98-5.56,9.62-7.09
		c3.65-1.55,7.81-2.32,12.5-2.32c5.15,0,9.73,0.96,13.76,2.88c4.04,1.92,7.22,4.67,9.56,8.24c1.6,2.51,2.76,5.45,3.48,8.86
		c0.7,3.38,1.05,8.38,1.05,14.99v36.73h-8.87V84.39c0-8.31-1.6-14.33-4.76-18.08c-3.19-3.76-8.26-5.63-15.25-5.63
		c-4.1,0-7.68,0.83-10.78,2.46c-3.07,1.63-5.52,3.99-7.31,7.04c-1.11,1.92-1.89,4.1-2.33,6.57c-0.45,2.44-0.67,6.72-0.67,12.81
		v34.18h-8.75V53.44z M131.12,112.62c-2.82,4.04-6.61,7.19-11.4,9.54c-4.8,2.27-9.98,3.44-15.51,3.44
		c-10.29,0-18.89-3.54-25.74-10.58c-6.87-7.05-10.29-15.76-10.29-26.11c0-10.51,3.51-19.31,10.51-26.39
		c7.01-7.07,15.77-10.6,26.3-10.6c5.41,0,10.36,1.08,14.88,3.29c4.51,2.2,8.27,5.36,11.25,9.48V53.44h8.81v70.3h-8.81V112.62z
		 M131.12,88.13c0-7.46-2.66-13.96-7.98-19.52c-5.32-5.56-11.47-8.34-18.4-8.34c-7.55,0-13.97,2.78-19.26,8.34
		c-5.3,5.56-7.96,12.46-7.96,20.68c0,7.83,2.64,14.45,7.92,19.81c5.28,5.4,11.62,8.11,19.04,8.11c7.15,0,13.39-2.83,18.69-8.53
		C128.45,102.98,131.12,96.14,131.12,88.13z"/>
	<path class="st0" d="M122.88,6.49c0,0,18.39,6.1,33.11,22.71c0,0,1.73,2.53-0.71,3.07c-2.44,0.55-66.18,14.7-66.18,14.7
		s-2.21,1-0.36-1.11C90.6,43.74,122.88,6.49,122.88,6.49z"/>
	<path class="st0" d="M70.27,2.83c0,0,16.75-6.44,42.11,0.11c0,0,2.13,0.34,0.43,2.23c-1.7,1.89-47.38,52.65-47.38,52.65
		s-1.61,2.48-1.35,0C64.36,55.34,70.27,2.83,70.27,2.83z"/>
	<path class="st0" d="M23.84,30.95c0,0-1.42-1.13,0-2.5c1.42-1.38,16.37-16.51,34.92-22.49c0,0,1.51-0.18,1.38,1.08
		C60,8.3,52.27,80.81,52.27,80.81s0.08,2-1.02,0C50.15,78.81,23.84,30.95,23.84,30.95z"/>
	<path class="st0" d="M15.68,37.75c0,0,0.64-2.04,2.18,0.79c1.54,2.83,38.36,70.66,38.36,70.66s1.45,1.9-0.49,1.02
		c-1.94-0.87-55.65-24.97-55.65-24.97S0.96,57.48,15.68,37.75z"/>
	<path class="st0" d="M1.15,97.54c0,0-1.36-0.63-1.15,0.79c0.21,1.43,4.16,30.66,15.87,42.7c0,0,0.33,0.99,2.34,0.56
		c2.01-0.44,55.43-11.82,55.43-11.82s2.59-0.31,0-1.41C71.06,127.27,1.15,97.54,1.15,97.54z"/>
	<g>
		<path d="M96.94,150.35c-0.13-2.36-0.28-5.19-0.25-7.29h-0.08c-0.58,1.98-1.28,4.08-2.13,6.41l-2.98,8.19h-1.65l-2.73-8.04
			c-0.8-2.38-1.48-4.56-1.95-6.56h-0.05c-0.05,2.1-0.18,4.94-0.33,7.47l-0.45,7.24h-2.08l1.18-16.89h2.78l2.88,8.17
			c0.7,2.08,1.28,3.93,1.7,5.69h0.08c0.43-1.7,1.03-3.56,1.78-5.69l3.01-8.17h2.78l1.05,16.89h-2.13L96.94,150.35z"/>
		<path d="M130.03,140.88v16.89h-2.18v-16.89H130.03z"/>
		<path d="M158.83,157.76v-16.89h2.38l5.41,8.54c1.25,1.98,2.23,3.76,3.03,5.49l0.05-0.02c-0.2-2.26-0.25-4.31-0.25-6.94v-7.07h2.05
			v16.89h-2.21l-5.36-8.57c-1.18-1.88-2.3-3.81-3.16-5.64l-0.08,0.03c0.13,2.13,0.18,4.16,0.18,6.96v7.22H158.83z"/>
		<path d="M209.06,149.85h-6.56v6.09h7.32v1.83h-9.5v-16.89h9.12v1.83h-6.94v5.34h6.56V149.85z"/>
		<path d="M237.64,141.1c1.1-0.23,2.68-0.35,4.18-0.35c2.33,0,3.83,0.43,4.89,1.38c0.85,0.75,1.33,1.9,1.33,3.21
			c0,2.23-1.4,3.71-3.18,4.31v0.08c1.3,0.45,2.08,1.65,2.48,3.41c0.55,2.35,0.95,3.98,1.3,4.63h-2.25
			c-0.28-0.48-0.65-1.93-1.13-4.03c-0.5-2.33-1.4-3.21-3.38-3.28h-2.05v7.32h-2.18V141.1z M239.82,148.79h2.23
			c2.33,0,3.81-1.28,3.81-3.21c0-2.18-1.58-3.13-3.88-3.16c-1.05,0-1.8,0.1-2.15,0.2V148.79z"/>
		<path d="M278.97,152.45l-1.75,5.31h-2.25l5.74-16.89h2.63l5.76,16.89h-2.33l-1.8-5.31H278.97z M284.51,150.75l-1.65-4.86
			c-0.38-1.1-0.63-2.1-0.88-3.08h-0.05c-0.25,1-0.53,2.03-0.85,3.06l-1.65,4.89H284.51z"/>
		<path d="M316.57,140.88h2.18v15.06h7.22v1.83h-9.4V140.88z"/>
		<path d="M362.14,149.85h-6.56v6.09h7.32v1.83h-9.5v-16.89h9.12v1.83h-6.94v5.34h6.56V149.85z"/>
		<path d="M390.42,155.11c0.98,0.6,2.41,1.1,3.91,1.1c2.23,0,3.53-1.18,3.53-2.88c0-1.58-0.9-2.48-3.18-3.36
			c-2.76-0.98-4.46-2.41-4.46-4.79c0-2.63,2.18-4.59,5.46-4.59c1.73,0,2.98,0.4,3.73,0.83l-0.6,1.78c-0.55-0.3-1.68-0.8-3.21-0.8
			c-2.31,0-3.18,1.38-3.18,2.53c0,1.58,1.03,2.36,3.36,3.26c2.86,1.1,4.31,2.48,4.31,4.96c0,2.61-1.93,4.86-5.91,4.86
			c-1.63,0-3.41-0.48-4.31-1.08L390.42,155.11z"/>
	</g>
</g>
</svg>
